<?xml version="1.0" encoding="utf-8"?>
<!-- Generator: Adobe Illustrator 19.1.0, SVG Export Plug-In . SVG Version: 6.00 Build 0)  -->
<svg version="1.1" xmlns="http://www.w3.org/2000/svg" xmlns:xlink="http://www.w3.org/1999/xlink" x="0px" y="0px"
	 viewBox="0 0 80 80" enable-background="new 0 0 80 80" xml:space="preserve">
<g>
	<circle fill="#FFFFFF" cx="40" cy="40" r="40"/>
	<g>
		<g>
			<path fill="#FB7C3C" d="M28.6,36.8L25,38.2V42h-3v-6.1l9.3-3.8c0.2,0,0.6,0,0.9-0.1c0.3-0.1,0.6-0.1,0.8-0.1
				c1.1,0,2.1,0.6,2.9,1.7l1.8,2.8c1.6,2.8,4.2,4.2,7.3,4.2V44c-4.2,0-6.9-1.4-9.4-4.3L35,44.9l4,3.5V61h-4V51l-3.7-3.7L28,61h-3.6
				L28.6,36.8z M39.1,27.6c0,1.9-1.6,3.5-3.5,3.5c-1.9,0-3.5-1.6-3.5-3.5s1.6-3.5,3.5-3.5C37.6,24.1,39.1,25.7,39.1,27.6z"/>
		</g>
		<rect x="54" y="19" fill="#FB7C3C" width="4" height="42"/>
	</g>
</g>
</svg>
