<?xml version="1.0" encoding="utf-8"?>
<!-- Generator: Adobe Illustrator 19.1.0, SVG Export Plug-In . SVG Version: 6.00 Build 0)  -->
<svg version="1.1" xmlns="http://www.w3.org/2000/svg" xmlns:xlink="http://www.w3.org/1999/xlink" x="0px" y="0px"
	 viewBox="0 0 80 80" enable-background="new 0 0 80 80" xml:space="preserve">
<g>
	<circle fill="#FFFFFF" cx="40" cy="40" r="40"/>
	<g>
		<path fill="#FB7C3C" d="M54.9,24.9c-6.3-6.1-14.9-7.6-19.2-3.1c-4.3,4.4-2.7,13,3.6,19.1s14.9,7.6,19.2,3.1
			C62.8,39.6,61.2,31.1,54.9,24.9z M50,43.6c-1.5-1.5-1.1-4.5,1.1-6.7s5.1-2.7,6.7-1.2c1.5,1.5,1.1,4.5-1.1,6.7
			C54.6,44.5,51.6,45.1,50,43.6z"/>
		<g>
			<polygon fill="#FB7C3C" points="22,54.9 22,59 25.2,59 61,22.9 61,19 57.3,19 			"/>
		</g>
		<ellipse fill="#FB7C3C" cx="23.3" cy="56.7" rx="4.3" ry="4.3"/>
	</g>
</g>
</svg>
