<?xml version="1.0" encoding="utf-8"?>
<!-- Generator: Adobe Illustrator 19.1.0, SVG Export Plug-In . SVG Version: 6.00 Build 0)  -->
<svg version="1.1" xmlns="http://www.w3.org/2000/svg" xmlns:xlink="http://www.w3.org/1999/xlink" x="0px" y="0px"
	 viewBox="0 0 80 80" enable-background="new 0 0 80 80" xml:space="preserve">
<g>
	<circle fill="#FFFFFF" cx="40" cy="40" r="40"/>
	<g>
		<path fill="#3264A5" d="M20,50.3H60v3.9H20V50.3z M43.7,31.8c3.9,0.8,7.3,2.7,9.9,5.8c2.7,3,4.2,6.6,4.4,10.6H22
			c0.2-4.1,1.7-7.6,4.4-10.6c2.7-3,6-5,9.9-5.8c-0.3-0.6-0.4-1.2-0.4-1.6c0-1.1,0.4-2,1.2-2.8c0.8-0.8,1.7-1.2,2.8-1.2
			c1.1,0,2,0.4,2.8,1.2c0.8,0.8,1.2,1.7,1.2,2.8C44,30.6,43.9,31.2,43.7,31.8z"/>
	</g>
</g>
</svg>
