<?xml version="1.0" encoding="utf-8"?>
<!-- Generator: Adobe Illustrator 19.1.0, SVG Export Plug-In . SVG Version: 6.00 Build 0)  -->
<svg version="1.1" xmlns="http://www.w3.org/2000/svg" xmlns:xlink="http://www.w3.org/1999/xlink" x="0px" y="0px"
	 viewBox="0 0 80 80" enable-background="new 0 0 80 80" xml:space="preserve">
<g>
	<circle fill="#FFFFFF" cx="40" cy="40" r="40"/>
	<g>
		<path fill="#FB7C3C" d="M52,34c1.6,0,3,0.6,4.2,1.8C57.4,37,58,38.4,58,40v3.1c0,1.1-0.4,2-1.2,2.8c-0.8,0.8-1.7,1.2-2.8,1.2
			c-1.1,0-2-0.4-2.7-1.1L47,41.6l-4.3,4.3C42,46.7,41,47.1,40,47.1c-1.1,0-2-0.4-2.8-1.1L33,41.6l-4.3,4.3c-0.8,0.8-1.7,1.1-2.7,1.1
			c-1.1,0-2-0.4-2.8-1.2c-0.8-0.8-1.2-1.7-1.2-2.8V40c0-1.6,0.6-3,1.8-4.2C25,34.6,26.4,34,28,34h10v-4H42v4H52z M49.2,48
			c1.4,1.4,3,2.1,4.9,2.1c1.4,0,2.7-0.4,3.9-1.2V58c0,0.6-0.2,1-0.6,1.4S56.6,60,56,60H24c-0.6,0-1-0.2-1.4-0.6S22,58.6,22,58v-9.2
			c1.2,0.8,2.5,1.2,3.9,1.2c1.9,0,3.5-0.7,4.9-2.1l2.2-2.2l2.2,2.2c1.3,1.3,2.9,2,4.9,2c1.9,0,3.6-0.7,4.9-2l2.2-2.2L49.2,48z
			 M40,28c-1.1,0-2-0.4-2.8-1.2C36.4,26,36,25,36,24c0-0.7,0.2-1.4,0.7-2.1L40,16l3.4,5.9c0.4,0.7,0.7,1.4,0.7,2.1
			c0,1.1-0.4,2-1.2,2.8C42.1,27.6,41.1,28,40,28z"/>
	</g>
</g>
</svg>
