<?xml version="1.0" encoding="utf-8"?>
<!-- Generator: Adobe Illustrator 19.1.0, SVG Export Plug-In . SVG Version: 6.00 Build 0)  -->
<svg version="1.1" xmlns="http://www.w3.org/2000/svg" xmlns:xlink="http://www.w3.org/1999/xlink" x="0px" y="0px"
	 viewBox="0 0 80 80" enable-background="new 0 0 80 80" xml:space="preserve">
<g>
	<circle fill="#FB7C3C" cx="40" cy="40" r="40"/>
	<g>
		<rect x="22" y="19" fill="#FFFFFF" width="4" height="42"/>
		<g>
			<path fill="#FFFFFF" d="M41.6,36.7L38,38v4h-3v-6.2l9.3-3.8c0.2,0,0.6,0,0.9-0.1c0.3-0.1,0.6-0.1,0.8-0.1c1.1,0,2.1,0.6,2.9,1.7
				l1.8,2.8c1.6,2.8,4.2,4.2,7.3,4.2v3.4c-4.2,0-6.9-1.4-9.4-4.3L48,44.8l4,3.5V61h-4V50.9l-3.7-3.6L41,61h-3.6L41.6,36.7z
				 M52.1,27.5c0,1.9-1.6,3.5-3.5,3.5c-1.9,0-3.5-1.6-3.5-3.5s1.6-3.5,3.5-3.5C50.6,24,52.1,25.6,52.1,27.5z"/>
		</g>
	</g>
</g>
</svg>
