<?xml version="1.0" encoding="utf-8"?>
<!-- Generator: Adobe Illustrator 19.1.0, SVG Export Plug-In . SVG Version: 6.00 Build 0)  -->
<svg version="1.1" xmlns="http://www.w3.org/2000/svg" xmlns:xlink="http://www.w3.org/1999/xlink" x="0px" y="0px"
	 viewBox="0 0 80 80" enable-background="new 0 0 80 80" xml:space="preserve">
<g>
	<circle fill="#FFFFFF" cx="40" cy="40" r="40"/>
	<g>
		<path fill="#3264A5" d="M40,28v2.5c0,0.2-0.1,0.5-0.2,1l-4.6,10.6c-0.6,1.3-1.5,1.9-2.7,1.9H19c-0.9,0-1.6-0.3-2.2-0.9
			C16.3,42.5,16,41.8,16,41V28c0-0.9,0.3-1.6,0.8-2.2l9.9-9.8l1.6,1.6c0.4,0.4,0.7,1,0.7,1.6c-0.2,0.9-0.5,2.1-0.8,3.8
			c-0.3,1.6-0.5,2.7-0.6,3.1H38c0.6,0,1,0.2,1.4,0.6S40,27.4,40,28z M61,36c0.9,0,1.6,0.3,2.2,0.9c0.6,0.6,0.8,1.3,0.8,2.1v13
			c0,0.9-0.3,1.6-0.8,2.2L53.2,64l-1.6-1.6c-0.4-0.4-0.7-1-0.7-1.6c0.2-0.9,0.5-2.1,0.8-3.8c0.3-1.6,0.5-2.7,0.6-3.1H42
			c-0.6,0-1-0.2-1.4-0.6S40,52.6,40,52v-2.5c0-0.2,0.1-0.5,0.2-1l4.6-10.6c0.6-1.3,1.5-1.9,2.7-1.9H61z"/>
	</g>
</g>
</svg>
