<?xml version="1.0" encoding="utf-8"?>
<!-- Generator: Adobe Illustrator 19.1.0, SVG Export Plug-In . SVG Version: 6.00 Build 0)  -->
<svg version="1.1" xmlns="http://www.w3.org/2000/svg" xmlns:xlink="http://www.w3.org/1999/xlink" x="0px" y="0px"
	 viewBox="0 0 80 80" enable-background="new 0 0 80 80" xml:space="preserve">
<g>
	<circle fill="#FB7C3C" cx="40" cy="40" r="40"/>
	<g>
		<g>
			<path fill="#FFFFFF" d="M26.1,41.3c2.9,5.6,7.3,9.8,13,12.7l4.3-4.2c0.6-0.6,1.3-0.8,2-0.5c2.2,0.7,4.5,1.1,7,1.1
				c0.6,0,0.8,0.2,1.2,0.5s0.4,0.8,0.4,1.4v6.8c0,0.5,0,1-0.4,1.4c-0.4,0.4-0.7,0.5-1.3,0.5c-9.2,0-17-3.2-23.6-9.6S19,37.2,19,28.2
				c0-0.5,0.2-1.2,0.6-1.5c0.4-0.4,0.8-0.7,1.4-0.7h6.9c0.6,0,1,0.3,1.4,0.7s0.6,0.9,0.6,1.4c0,2.4,0.4,4.7,1.1,6.9
				c0.2,0.8,0.1,1.5-0.5,2L26.1,41.3z"/>
		</g>
		<g>
			<path fill="#FFFFFF" d="M39,19c7,0,11.2,2,15.5,6.4S61,35,61,41h-3.9c0-5-1.9-9.2-5.4-12.8S44,23,39,23V19z M39,27.1
				c4,0,7.3,1.2,10,4c2.7,2.8,4.2,5.9,4.2,9.9h-4c0-2-1.1-5-3.1-7c-1.9-2-4.1-2.8-7.1-2.8V27.1z"/>
		</g>
	</g>
</g>
</svg>
