<?xml version="1.0" encoding="utf-8"?>
<!-- Generator: Adobe Illustrator 19.1.0, SVG Export Plug-In . SVG Version: 6.00 Build 0)  -->
<svg version="1.1" xmlns="http://www.w3.org/2000/svg" xmlns:xlink="http://www.w3.org/1999/xlink" x="0px" y="0px"
	 viewBox="0 0 80 80" enable-background="new 0 0 80 80" xml:space="preserve">
<g>
	<circle fill="#FFFFFF" cx="40" cy="40" r="40"/>
	<g>
		<path fill="#FB7C3C" d="M56.9,23c1.2,0,2.2,0.4,3,1.2c0.8,0.8,1.2,1.8,1.2,3v25.5c0,1.2-0.4,2.2-1.2,3C59,56.6,58,57,56.9,57H23.1
			c-1.2,0-2.2-0.4-3-1.2c-0.8-0.8-1.2-1.8-1.2-3V27.3c0-1.2,0.4-2.2,1.2-3c0.8-0.8,1.8-1.2,3-1.2H56.9z M56.9,31.5v-4.3H23.1v4.3
			H56.9z M56.9,52.7V40H23.1v12.7H56.9z"/>
	</g>
</g>
</svg>
