<?xml version="1.0" encoding="utf-8"?>
<!-- Generator: Adobe Illustrator 19.1.0, SVG Export Plug-In . SVG Version: 6.00 Build 0)  -->
<svg version="1.1" xmlns="http://www.w3.org/2000/svg" xmlns:xlink="http://www.w3.org/1999/xlink" x="0px" y="0px"
	 viewBox="0 0 130 130" enable-background="new 0 0 130 130" xml:space="preserve">
<g>
	<path fill="#FB7C3C" d="M65.9,117.6c47.6-13,72.6-46.1,59.5-74.5c-0.5-0.9-1.2-0.3-1.5,0.6c-9.1,22.5-26.5,35-48.7,41.7
		c-2.7,0.8-5.7,4.5-6.4,7.4c-1.8,7.1-2.5,14.4-3.8,23C64.9,116.5,65,117.9,65.9,117.6z"/>
	<path fill="#FB7C3C" d="M33.2,19.6C16.3,34.9,3.8,53.3,0.5,77.2c-2.9,21.5,6.3,40.4,23,49.2c17.1,9,37.8,0.9,37.9-22.5
		c0.2-36.8,25.8-64.5,61.3-68.1c9.4-0.9,7.8-5.8,5.5-10.9c-6.7-14.8-19-21.9-34.1-24.2C71.2-2.7,51.6,5.6,33.2,19.6z"/>
</g>
</svg>
