<?xml version="1.0" encoding="utf-8"?>
<!-- Generator: Adobe Illustrator 19.1.0, SVG Export Plug-In . SVG Version: 6.00 Build 0)  -->
<svg version="1.1" xmlns="http://www.w3.org/2000/svg" xmlns:xlink="http://www.w3.org/1999/xlink" x="0px" y="0px"
	 viewBox="0 0 80 80" enable-background="new 0 0 80 80" xml:space="preserve">
<g id="icons">
	<circle fill="#FB7C3C" cx="40" cy="40" r="40"/>
	<path fill="#3264A5" d="M26.1,22v24H18V22H26.1z M60.8,46.8C60,47.6,59,47.9,58,47.9H45.3l2,9.2v0.7c0,0.8-0.3,1.5-0.8,2.1
		L44.3,62L31.2,48.8C30.4,48,30,47,30,46V26c0-1.1,0.4-2,1.2-2.8C32,22.4,32.9,22,34,22h18c1.8,0,3,0.8,3.7,2.4l6.1,14.1
		c0.2,0.5,0.3,1,0.3,1.5v3.8h-0.1L62,44C62,45.1,61.6,46,60.8,46.8z"/>
</g>
</svg>
