<?xml version="1.0" encoding="utf-8"?>
<!-- Generator: Adobe Illustrator 19.1.0, SVG Export Plug-In . SVG Version: 6.00 Build 0)  -->
<svg version="1.1" xmlns="http://www.w3.org/2000/svg" xmlns:xlink="http://www.w3.org/1999/xlink" x="0px" y="0px"
	 viewBox="0 0 80 80" enable-background="new 0 0 80 80" xml:space="preserve">
<g id="icons">
	<circle fill="#FB7C3C" cx="40" cy="40" r="40"/>
	<path fill="#3264A5" d="M18,58V34h8.1v24H18z M62,36l-0.1,0.2H62V40c0,0.5-0.1,1-0.3,1.5l-6.1,14.1C55,57.2,53.8,58,52,58H34
		c-1.1,0-2-0.4-2.8-1.2C30.4,56,30,55,30,54V34c0-1.1,0.4-2,1.2-2.8L44.3,18l2.2,2.2c0.6,0.6,0.8,1.3,0.8,2.1v0.7l-2,9.2H58
		c1.1,0,2,0.4,2.8,1.2C61.6,34,62,34.9,62,36z"/>
</g>
</svg>
