<?xml version="1.0" encoding="utf-8"?>
<!-- Generator: Adobe Illustrator 19.1.0, SVG Export Plug-In . SVG Version: 6.00 Build 0)  -->
<svg version="1.1" xmlns="http://www.w3.org/2000/svg" xmlns:xlink="http://www.w3.org/1999/xlink" x="0px" y="0px"
	 viewBox="0 0 80 80" enable-background="new 0 0 80 80" xml:space="preserve">
<g>
	<circle fill="#FFFFFF" cx="40" cy="40" r="40"/>
	<g>
		<path fill="#3264A5" d="M38,34V20H42v14c0,2.1-0.7,4-2.2,5.5c-1.4,1.5-3.2,2.4-5.3,2.5v18h-5v-18c-2.1-0.1-3.9-1-5.3-2.5
			C22.7,37.9,22,36.1,22,34V20h4v14H30V20h4v14H38z M48,28c0-1.9,1-3.7,3-5.4c2-1.7,4.4-2.6,7-2.6v39.9h-5V44H48V28z"/>
	</g>
</g>
</svg>
